:FULLY-SPECIFIED
:FORCE-ALL-JOINTS-BE-3DOF
:DEGREES
1053
root 1.20716 15.1592 32.5513 4.90241 -3.42995 3.46291
lfemur 8.73465 0.497847 5.63589
ltibia 0.121247 -0 0
lfoot -30.4398 -11.2027 -0.00029812
ltoes -34.1926 0 0
rfemur -31.0873 -15.6741 -6.31842
rtibia 50.0176 -0 0
rfoot -21.8594 5.46149 -8.15721e-06
rtoes -40.938 0 0
lowerback -1.82308 -0.0542841 -0.257315
upperback -0.487406 -0.0348935 -6.04557
thorax 0.518454 -0.0192558 -6.12211
lowerneck -6.98032 0.760131 6.56593
upperneck 1.24778 0.331696 3.65128
head 1.57732 0.290319 0.0481254
lclavicle -5.37901e-15 4.65044e-14 1.89604e-31
lhumerus -58.7042 -46.8374 115.402
lradius 55.8011 -0 0
lwrist 25.5275 0 0
lhand 37.4199 25.3232 -1.12093e-05
lfingers 7.12502 -0 0
lthumb 60.2242 38.8659 -1.34243e-05
rclavicle -5.37901e-15 4.65044e-14 1.89604e-31
rhumerus 2.17423 -23.5227 0.603002
rradius 27.4924 -0 0
rwrist -9.73332 0 0
rhand -30.5341 -42.0498 -3.68301e-05
rfingers 7.12502 -0 0
rthumb -3.83325 -71.9954 -3.59601e-05
1054
root 1.20931 15.1596 32.5556 4.9061 -3.43336 3.45354
lfemur 8.71148 0.504797 5.62351
ltibia 0.199114 -0 0
lfoot -30.487 -11.1858 -0.000468492
ltoes -34.1944 0 0
rfemur -31.0632 -15.6542 -6.32251
rtibia 49.9998 -0 0
rfoot -21.8541 5.45812 -1.11335e-05
rtoes -40.9215 0 0
lowerback -1.83502 -0.0550816 -0.268575
upperback -0.488592 -0.035411 -6.03944
thorax 0.52391 -0.0194637 -6.10919
lowerneck -6.98308 0.757803 6.55991
upperneck 1.25391 0.328421 3.65506
head 1.57973 0.288984 0.0502179
lclavicle -4.91341e-15 4.55478e-14 3.32209e-31
lhumerus -58.6978 -46.8355 115.408
lradius 55.7976 -0 0
lwrist 25.5318 0 0
lhand 37.4255 25.3226 -1.67726e-05
lfingers 7.12502 -0 0
lthumb 60.2289 38.8603 -2.04961e-05
rclavicle -4.91341e-15 4.55478e-14 3.32209e-31
rhumerus 2.16659 -23.5023 0.603982
rradius 27.4949 -0 0
rwrist -9.71235 0 0
rhand -30.541 -42.0326 -5.40321e-05
rfingers 7.12502 -0 0
rthumb -3.83991 -71.978 -5.28115e-05
1055
root 1.21149 15.16 32.5601 4.90987 -3.43727 3.44314
lfemur 8.68444 0.512495 5.61015
ltibia 0.286741 -0 0
lfoot -30.5391 -11.1658 -0.000641156
ltoes -34.1975 0 0
rfemur -31.0378 -15.6336 -6.32577
rtibia 49.9805 -0 0
rfoot -21.8496 5.45397 -1.33459e-05
rtoes -40.9067 0 0
lowerback -1.8472 -0.0561281 -0.279513
upperback -0.490058 -0.0362775 -6.03236
thorax 0.529173 -0.0198546 -6.09545
lowerneck -6.98698 0.755762 6.55238
upperneck 1.26286 0.325405 3.65906
head 1.58326 0.287889 0.0526508
lclavicle -4.2902e-15 4.43876e-14 4.93287e-31
lhumerus -58.6903 -46.8326 115.415
lradius 55.7932 -0 0
lwrist 25.5353 0 0
lhand 37.4313 25.3208 -2.20449e-05
lfingers 7.12502 -0 0
lthumb 60.2339 38.8531 -2.73886e-05
rclavicle -4.2902e-15 4.43876e-14 4.93287e-31
rhumerus 2.16054 -23.4807 0.603253
rradius 27.4977 -0 0
rwrist -9.68958 0 0
rhand -30.5491 -42.0161 -6.95877e-05
rfingers 7.12502 -0 0
rthumb -3.84777 -71.9614 -6.80834e-05
1056
root 1.21369 15.1604 32.5648 4.9137 -3.44163 3.43186
lfemur 8.65402 0.520837 5.59597
ltibia 0.382828 -0 0
lfoot -30.5954 -11.1431 -0.000807463
ltoes -34.2016 0 0
rfemur -31.0114 -15.6124 -6.32828
rtibia 49.9601 -0 0
rfoot -21.8458 5.44914 -1.48237e-05
rtoes -40.8937 0 0
lowerback -1.85955 -0.0573949 -0.29012
upperback -0.491771 -0.0374544 -6.02446
thorax 0.534244 -0.0204086 -6.08104
lowerneck -6.99187 0.753988 6.54352
upperneck 1.27431 0.322632 3.66325
head 1.58779 0.287012 0.0553811
lclavicle -3.52755e-15 4.30488e-14 6.61932e-31
lhumerus -58.682 -46.8287 115.422
lradius 55.788 -0 0
lwrist 25.5382 0 0
lhand 37.4375 25.3179 -2.68349e-05
lfingers 7.12502 -0 0
lthumb 60.2391 38.8446 -3.38073e-05
rclavicle -3.52755e-15 4.30488e-14 6.61932e-31
rhumerus 2.15594 -23.4582 0.600992
rradius 27.5008 -0 0
rwrist -9.66528 0 0
rhand -30.5584 -42.0002 -8.30353e-05
rfingers 7.12502 -0 0
rthumb -3.85666 -71.9453 -8.13164e-05
1057
root 1.2159 15.1609 32.5695 4.91758 -3.44636 3.41983
lfemur 8.62071 0.529716 5.58109
ltibia 0.486073 -0 0
lfoot -30.6554 -11.1181 -0.000959397
ltoes -34.2068 0 0
rfemur -30.9842 -15.5907 -6.33011
rtibia 49.9387 -0 0
rfoot -21.8426 5.44372 -1.56259e-05
rtoes -40.8822 0 0
lowerback -1.87199 -0.0588532 -0.30039
upperback -0.493696 -0.0389034 -6.01586
thorax 0.539122 -0.0211061 -6.06608
lowerneck -6.99764 0.752456 6.53349
upperneck 1.28795 0.320088 3.66759
head 1.59318 0.286335 0.0583656
lclavicle -2.64361e-15 4.15558e-14 8.27315e-31
lhumerus -58.6729 -46.824 115.43
lradius 55.7821 -0 0
lwrist 25.5404 0 0
lhand 37.4438 25.314 -3.09667e-05
lfingers 7.12502 -0 0
lthumb 60.2445 38.8349 -3.94859e-05
rclavicle -2.64361e-15 4.15558e-14 8.27315e-31
rhumerus 2.15264 -23.4349 0.597374
rradius 27.5041 -0 0
rwrist -9.6397 0 0
rhand -30.5685 -41.985 -9.40348e-05
rfingers 7.12502 -0 0
rthumb -3.86644 -71.9299 -9.2169e-05
1058
root 1.21812 15.1614 32.5743 4.92148 -3.45141 3.4072
lfemur 8.585 0.539028 5.56568
ltibia 0.595174 -0 0
lfoot -30.7182 -11.0912 -0.00108985
ltoes -34.2128 0 0
rfemur -30.9564 -15.5686 -6.33132
rtibia 49.9166 -0 0
rfoot -21.8401 5.43781 -1.58314e-05
rtoes -40.8722 0 0
lowerback -1.88447 -0.0604743 -0.310317
upperback -0.495801 -0.040586 -6.00668
thorax 0.543809 -0.0219272 -6.05071
lowerneck -7.00415 0.751146 6.5225
upperneck 1.30346 0.317755 3.67204
head 1.59932 0.285836 0.0615612
lclavicle -1.65655e-15 3.99336e-14 9.7923e-31
lhumerus -58.6631 -46.8186 115.438
lradius 55.7757 -0 0
lwrist 25.5422 0 0
lhand 37.4503 25.3093 -3.42885e-05
lfingers 7.12502 -0 0
lthumb 60.2501 38.8242 -4.41948e-05
rclavicle -1.65655e-15 3.99336e-14 9.7923e-31
rhumerus 2.15052 -23.411 0.592575
rradius 27.5076 -0 0
rwrist -9.61311 0 0
rhand -30.5794 -41.9705 -0.000102358
rfingers 7.12502 -0 0
rthumb -3.87696 -71.9152 -0.000100409
